<?xml version="1.0" encoding="utf-8"?>

<!-- Uploaded to: SVG Repo, www.svgrepo.com, Generator: SVG Repo Mixer Tools -->
<svg version="1.1" id="Uploaded to svgrepo.com" xmlns="http://www.w3.org/2000/svg" xmlns:xlink="http://www.w3.org/1999/xlink" 
	 width="800px" height="800px" viewBox="0 0 32 32" xml:space="preserve">
<style type="text/css">
	.open_een{fill:#eeeeee;}
</style>
<g>
	<g>
		<path class="open_een" d="M17.5,5C17.224,5,17,5.224,17,5.5v6c0,0.276,0.224,0.5,0.5,0.5s0.5-0.224,0.5-0.5v-6
			C18,5.224,17.776,5,17.5,5z"/>
		<path class="open_een" d="M14.5,5C14.224,5,14,5.224,14,5.5v6c0,0.276,0.224,0.5,0.5,0.5s0.5-0.224,0.5-0.5v-6
			C15,5.224,14.776,5,14.5,5z"/>
		<path class="open_een" d="M23.464,2.53C23.179,2.193,22.761,2,22.319,2H9.681C9.239,2,8.821,2.193,8.536,2.53
			s-0.408,0.78-0.335,1.216l2.598,15.588l-0.751,0.109c-0.569,0.083-1.033,0.474-1.211,1.021c-0.178,0.547-0.032,1.136,0.379,1.537
			l2.116,2.062c0.118,0.114,0.172,0.28,0.144,0.441l-0.5,2.912c-0.097,0.567,0.131,1.129,0.596,1.467
			c0.263,0.191,0.571,0.288,0.88,0.288c0.238,0,0.479-0.058,0.7-0.174l2.615-1.374c0.146-0.076,0.319-0.076,0.465,0l2.615,1.374
			c0.507,0.267,1.114,0.224,1.58-0.114c0.465-0.338,0.693-0.899,0.596-1.467l-0.5-2.912c-0.028-0.161,0.026-0.327,0.144-0.441
			l2.116-2.062c0.412-0.401,0.557-0.99,0.379-1.537c-0.178-0.548-0.642-0.938-1.211-1.021l-0.751-0.109l2.598-15.588
			C23.872,3.311,23.75,2.867,23.464,2.53z M20.131,19.674c-0.022,0.133,0.01,0.269,0.089,0.377s0.199,0.181,0.332,0.2l1.257,0.183
			c0.192,0.027,0.343,0.155,0.403,0.34s0.013,0.376-0.126,0.512l-2.116,2.062c-0.354,0.345-0.515,0.842-0.431,1.328l0.5,2.912
			c0.033,0.191-0.042,0.374-0.199,0.488s-0.354,0.127-0.527,0.038l-2.614-1.374c-0.438-0.23-0.959-0.23-1.396,0l-2.615,1.374
			c-0.174,0.089-0.37,0.076-0.527-0.038c-0.157-0.114-0.231-0.297-0.199-0.488l0.5-2.912c0.083-0.486-0.078-0.983-0.431-1.328
			l-2.116-2.062c-0.14-0.136-0.187-0.327-0.126-0.512s0.211-0.312,0.403-0.34l1.257-0.183c0,0,0,0,0.001,0l1.667-0.242
			c0.488-0.072,0.91-0.379,1.128-0.821l1.307-2.648c0.173-0.35,0.725-0.35,0.897,0l1.103,2.234c0.122,0.246,0.421,0.35,0.669,0.227
			c0.248-0.122,0.35-0.422,0.227-0.67l-1.103-2.234C17.09,15.58,16.575,15.26,16,15.26s-1.09,0.32-1.345,0.836l-1.307,2.648
			c-0.073,0.148-0.214,0.251-0.376,0.274l-1.183,0.172L9.187,3.582C9.163,3.435,9.202,3.291,9.299,3.177S9.531,3,9.681,3h12.639
			c0.15,0,0.285,0.062,0.382,0.177s0.136,0.258,0.112,0.405L20.131,19.674z"/>
	</g>
	<g>
		<path class="open_een" d="M17.5,5C17.224,5,17,5.224,17,5.5v6c0,0.276,0.224,0.5,0.5,0.5s0.5-0.224,0.5-0.5v-6
			C18,5.224,17.776,5,17.5,5z"/>
		<path class="open_een" d="M14.5,5C14.224,5,14,5.224,14,5.5v6c0,0.276,0.224,0.5,0.5,0.5s0.5-0.224,0.5-0.5v-6
			C15,5.224,14.776,5,14.5,5z"/>
		<path class="open_een" d="M23.464,2.53C23.179,2.193,22.761,2,22.319,2H9.681C9.239,2,8.821,2.193,8.536,2.53
			s-0.408,0.78-0.335,1.216l2.598,15.588l-0.751,0.109c-0.569,0.083-1.033,0.474-1.211,1.021c-0.178,0.547-0.032,1.136,0.379,1.537
			l2.116,2.062c0.118,0.114,0.172,0.28,0.144,0.441l-0.5,2.912c-0.097,0.567,0.131,1.129,0.596,1.467
			c0.263,0.191,0.571,0.288,0.88,0.288c0.238,0,0.479-0.058,0.7-0.174l2.615-1.374c0.146-0.076,0.319-0.076,0.465,0l2.615,1.374
			c0.507,0.267,1.114,0.224,1.58-0.114c0.465-0.338,0.693-0.899,0.596-1.467l-0.5-2.912c-0.028-0.161,0.026-0.327,0.144-0.441
			l2.116-2.062c0.412-0.401,0.557-0.99,0.379-1.537c-0.178-0.548-0.642-0.938-1.211-1.021l-0.751-0.109l2.598-15.588
			C23.872,3.311,23.75,2.867,23.464,2.53z M20.131,19.674c-0.022,0.133,0.01,0.269,0.089,0.377s0.199,0.181,0.332,0.2l1.257,0.183
			c0.192,0.027,0.343,0.155,0.403,0.34s0.013,0.376-0.126,0.512l-2.116,2.062c-0.354,0.345-0.515,0.842-0.431,1.328l0.5,2.912
			c0.033,0.191-0.042,0.374-0.199,0.488s-0.354,0.127-0.527,0.038l-2.614-1.374c-0.438-0.23-0.959-0.23-1.396,0l-2.615,1.374
			c-0.174,0.089-0.37,0.076-0.527-0.038c-0.157-0.114-0.231-0.297-0.199-0.488l0.5-2.912c0.083-0.486-0.078-0.983-0.431-1.328
			l-2.116-2.062c-0.14-0.136-0.187-0.327-0.126-0.512s0.211-0.312,0.403-0.34l1.257-0.183c0,0,0,0,0.001,0l1.667-0.242
			c0.488-0.072,0.91-0.379,1.128-0.821l1.307-2.648c0.173-0.35,0.725-0.35,0.897,0l1.103,2.234c0.122,0.246,0.421,0.35,0.669,0.227
			c0.248-0.122,0.35-0.422,0.227-0.67l-1.103-2.234C17.09,15.58,16.575,15.26,16,15.26s-1.09,0.32-1.345,0.836l-1.307,2.648
			c-0.073,0.148-0.214,0.251-0.376,0.274l-1.183,0.172L9.187,3.582C9.163,3.435,9.202,3.291,9.299,3.177S9.531,3,9.681,3h12.639
			c0.15,0,0.285,0.062,0.382,0.177s0.136,0.258,0.112,0.405L20.131,19.674z"/>
	</g>
</g>
</svg>